<svg width="18" height="18" viewBox="0 0 18 18" fill="none" xmlns="http://www.w3.org/2000/svg">
<g id="Vector">
<path d="M17.8245 9.20731C17.8245 8.59552 17.7748 7.98042 17.669 7.37854H9.17994V10.8443H14.0412C13.8395 11.962 13.1913 12.9508 12.2422 13.5792V15.8279H15.1425C16.8456 14.2604 17.8245 11.9455 17.8245 9.20731Z" fill="#4285F4"/>
<path d="M9.17993 18.0006C11.6073 18.0006 13.6543 17.2036 15.1458 15.8279L12.2455 13.5792C11.4386 14.1281 10.3969 14.439 9.18324 14.439C6.83527 14.439 4.84445 12.8549 4.13014 10.7252H1.1373V13.0434C2.66514 16.0826 5.77703 18.0006 9.17993 18.0006Z" fill="#34A853"/>
<path d="M4.12684 10.7252C3.74984 9.60745 3.74984 8.39709 4.12684 7.27932V4.96112H1.13731C-0.139189 7.5042 -0.139198 10.5003 1.1373 13.0434L4.12684 10.7252Z" fill="#FBBC04"/>
<path d="M9.17993 3.56224C10.463 3.5424 11.7032 4.02523 12.6324 4.9115L15.202 2.34196C13.5749 0.814129 11.4155 -0.0258495 9.17993 0.000606499C5.77702 0.000606499 2.66515 1.91868 1.13731 4.96112L4.12684 7.27932C4.83785 5.14631 6.83196 3.56224 9.17993 3.56224Z" fill="#EA4335"/>
</g>
</svg>
