<svg width="120" height="109" viewBox="0 0 120 109" fill="none" xmlns="http://www.w3.org/2000/svg">
<g clip-path="url(#clip0_83_3222)">
<path d="M81.7693 102.252L83.8845 103.761L90.7191 96.3337L87.5973 94.1075L81.7693 102.252Z" fill="#FFB6B6"/>
<path d="M81.7232 101.178L82.3185 101.603L85.3181 102.317L85.8887 104.149L85.8889 104.149C86.5929 104.651 87.0682 105.412 87.2104 106.264C87.3526 107.116 87.1499 107.99 86.647 108.692L86.5854 108.779L79.7652 103.915L81.7232 101.178Z" fill="#2F2E41"/>
<path d="M96.1026 82.3679H80.5715C79.1232 82.3671 77.7345 81.7922 76.7107 80.7695C75.6869 79.7469 75.1118 78.3602 75.1118 76.9143C75.1118 75.4684 75.6869 74.0817 76.7107 73.059C77.7345 72.0364 79.1232 71.4614 80.5715 71.4607H96.1026C97.5514 71.4607 98.9409 72.0352 99.9653 73.058C100.99 74.0807 101.565 75.4679 101.565 76.9143C101.565 78.3607 100.99 79.7478 99.9653 80.7706C98.9409 81.7933 97.5514 82.3679 96.1026 82.3679Z" fill="#2F2E41"/>
<path d="M88.4827 44.2864L90.9879 46.1908L94.0091 47.1177C94.0091 47.1177 95.2581 64.6574 96.3835 65.7809C97.5089 66.9045 96.4939 66.9346 96.7201 68.3942C96.9462 69.8538 97.4958 72.8457 97.4958 72.8457C89.8993 76.8602 83.3502 76.9679 78.0897 72.2702C78.0224 71.9796 78.0566 71.6748 78.1866 71.4062C78.3166 71.1377 78.5347 70.9216 78.8046 70.7937C79.7837 70.2751 77.902 67.8544 78.7022 67.4496C79.5023 67.0449 78.3769 63.5338 78.3769 63.5338L79.1152 56.2082L78.5319 55.0372L79.9553 47.872L82.4251 46.9715L83.4117 44.5984L88.4827 44.2864Z" fill="#FF7131"/>
<path d="M90.0521 27.9108C90.0408 28.2275 90.0993 28.5429 90.2234 28.8347C90.3474 29.1264 90.5341 29.3875 90.7701 29.5994C91.0062 29.8114 91.2859 29.9691 91.5896 30.0614C91.8933 30.1538 92.2136 30.1785 92.5279 30.1339L96.0585 36.9849L98.0255 33.4959L94.3713 27.525C94.2612 27.0028 93.9631 26.5391 93.5334 26.2216C93.1038 25.9042 92.5724 25.7551 92.04 25.8027C91.5077 25.8502 91.0112 26.0911 90.6448 26.4796C90.2785 26.8682 90.0675 27.3774 90.0521 27.9108Z" fill="#FFB6B6"/>
<path d="M95.9978 29.5867L103.57 41.3038L103.545 41.3577C103.517 41.4194 101.802 45.1168 100.14 48.5034C99.8846 49.0249 99.63 49.539 99.383 50.0314C99.2764 50.2439 99.1714 50.4519 99.0679 50.6555C98.3701 52.0291 97.7604 53.1643 97.3964 53.7036C96.5914 54.9228 95.3928 55.8305 93.9998 56.276L93.9648 56.285L93.9313 56.271C93.2499 55.984 92.6869 55.4737 92.335 54.8243C91.9831 54.1749 91.8633 53.4252 91.9955 52.6987C92.6523 49.1948 94.1159 45.8912 96.2708 43.0487L97.4984 41.4333L93.2322 32.1736L95.9978 29.5867Z" fill="#FF7131"/>
<path d="M82.9147 26.4754C82.9259 26.7921 82.8675 27.1075 82.7434 27.3992C82.6193 27.691 82.4327 27.952 82.1967 28.164C81.9606 28.376 81.6809 28.5337 81.3772 28.626C81.0735 28.7184 80.7532 28.7431 80.4388 28.6985L76.9083 35.5495L74.9413 32.0605L78.5955 26.0896C78.7056 25.5674 79.0037 25.1036 79.4333 24.7862C79.863 24.4688 80.3943 24.3197 80.9267 24.3673C81.4591 24.4148 81.9555 24.6557 82.3219 25.0442C82.6883 25.4327 82.8992 25.942 82.9147 26.4754Z" fill="#FFB6B6"/>
<path d="M76.969 28.1513L69.3964 39.8683L69.4214 39.9223C69.45 39.984 71.1648 43.6814 72.8263 47.0679C73.0822 47.5894 73.3368 48.1036 73.5838 48.596C73.6904 48.8085 73.7954 49.0165 73.8989 49.2201C74.5967 50.5936 75.2065 51.7289 75.5704 52.2682C76.3754 53.4874 77.574 54.3951 78.967 54.8405L79.002 54.8495L79.0355 54.8356C79.7169 54.5486 80.28 54.0383 80.6319 53.3889C80.9838 52.7395 81.1035 51.9898 80.9713 51.2633C80.3145 47.7594 78.8509 44.4558 76.696 41.6133L75.4684 39.9979L79.7346 30.7382L76.969 28.1513Z" fill="#FF7131"/>
<path d="M85.9181 43.2265C88.6549 43.2265 90.8734 41.0116 90.8734 38.2794C90.8734 35.5473 88.6549 33.3324 85.9181 33.3324C83.1814 33.3324 80.9629 35.5473 80.9629 38.2794C80.9629 41.0116 83.1814 43.2265 85.9181 43.2265Z" fill="#FFB6B6"/>
<path d="M81.8821 34.0295C82.2896 32.8459 84.3182 32.025 87.6069 31.9108C90.8955 31.7967 91.7296 35.6658 91.7296 35.6658C93.925 37.4438 89.3853 42.2039 89.1657 42.0325L89.2644 41.1381C89.428 39.6568 90.1228 38.5009 89.2391 36.9571L88.3906 36.9669L86.7812 37.2758C86.6809 37.2951 86.577 37.2809 86.4856 37.2354C86.3942 37.1899 86.3203 37.1156 86.2753 37.024C86.2303 36.9325 86.2167 36.8287 86.2367 36.7286C86.2566 36.6286 86.309 36.5379 86.3856 36.4705L86.4004 36.4576L86.3638 36.4011C85.7968 36.6607 85.2126 36.9015 84.5928 36.9379C83.8955 36.9788 83.1331 36.7017 82.7991 36.0893C82.71 35.9209 82.6555 35.7364 82.6389 35.5467C81.6985 35.9218 81.2686 37.0791 81.2686 37.0791C81.2686 37.0791 81.4746 35.2131 81.8821 34.0295Z" fill="#2F2E41"/>
<path d="M95.2651 100.148L93.2812 101.825L85.8582 94.9839L88.7859 92.5089L95.2651 100.148Z" fill="#FFB6B6"/>
<path d="M97.3993 101.64L91.0028 107.047L90.9343 106.966C90.3752 106.307 90.1013 105.453 90.1728 104.593C90.2443 103.732 90.6554 102.935 91.3157 102.376L91.3158 102.376L91.7336 100.503L94.6642 99.5456L95.2226 99.0735L97.3993 101.64Z" fill="#2F2E41"/>
<path d="M83.005 81.232L84.6447 77.682C84.6263 74.444 81.9113 71.8142 78.6742 72.0172C76.8715 72.1302 75.1834 73.1368 74.486 76.1286C72.6926 83.8218 90.2897 99.8315 90.2897 99.8315L93.5231 97.8365L93.6721 95.729L91.8613 94.6147L91.8597 92.8174L90.133 91.9997L83.005 81.232Z" fill="#2F2E41"/>
<path d="M93.7773 80.2543L91.7506 77.2791C91.5022 74.0505 93.9915 71.2068 97.2343 71.1433C99.0402 71.108 100.805 71.9726 101.747 74.8971C104.168 82.417 87.949 99.8169 87.949 99.8169L84.5622 98.0942L84.2401 96.006L85.953 94.7469L85.8066 92.9554L87.4601 91.9988L93.7773 80.2543Z" fill="#2F2E41"/>
<path d="M86.6436 55.8903V56.8408H83.4868V55.8903H84.4645V53.6L83.5507 54.1231V53.0959L84.9566 52.2985H85.6595V55.8903L86.6436 55.8903Z" fill="white"/>
<path d="M87.3561 56.2986C87.0557 55.8988 86.9056 55.3204 86.9056 54.5633C86.9056 53.819 87.0557 53.248 87.3561 52.8503C87.5157 52.6633 87.714 52.5131 87.9375 52.4102C88.1609 52.3072 88.404 52.2538 88.6501 52.2538C88.8962 52.2538 89.1394 52.3072 89.3628 52.4102C89.5862 52.5131 89.7846 52.6633 89.9442 52.8503C90.2445 53.248 90.3947 53.819 90.3947 54.5633C90.3947 55.3204 90.2445 55.8988 89.9442 56.2986C89.7852 56.4865 89.587 56.6375 89.3635 56.741C89.14 56.8446 88.8965 56.8982 88.6501 56.8982C88.4037 56.8982 88.1603 56.8446 87.9368 56.741C87.7133 56.6375 87.5151 56.4865 87.3561 56.2986ZM89.091 55.6638C89.199 55.3074 89.2444 54.9351 89.2253 54.5633C89.244 54.1988 89.1985 53.8339 89.091 53.4851C89.0636 53.3895 89.0057 53.3054 88.9262 53.2456C88.8466 53.1857 88.7497 53.1533 88.6501 53.1533C88.5505 53.1533 88.4536 53.1857 88.3741 53.2456C88.2945 53.3054 88.2367 53.3895 88.2092 53.4851C88.1018 53.8339 88.0563 54.1988 88.075 54.5633C88.0559 54.9351 88.1013 55.3074 88.2092 55.6638C88.2359 55.7601 88.2935 55.845 88.3731 55.9055C88.4528 55.966 88.5501 55.9988 88.6501 55.9988C88.7502 55.9988 88.8475 55.966 88.9271 55.9055C89.0068 55.845 89.0644 55.7601 89.091 55.6638Z" fill="white"/>
<path d="M52.978 106.254L50.5541 106.254L49.4008 96.9194L52.9785 96.9196L52.978 106.254Z" fill="#A0616A"/>
<path d="M53.0634 108.779L45.6092 108.778V108.684C45.6092 107.916 45.9149 107.179 46.4591 106.636C47.0032 106.093 47.7411 105.788 48.5106 105.788H48.5108L49.8724 104.756L52.4128 105.788L53.0635 105.788L53.0634 108.779Z" fill="#2F2E41"/>
<path d="M70.1297 106.254L72.5536 106.254L73.7067 96.9194L70.1291 96.9196L70.1297 106.254Z" fill="#A0616A"/>
<path d="M70.0442 108.779L77.4985 108.778V108.684C77.4984 107.916 77.1927 107.179 76.6486 106.636C76.1045 106.093 75.3665 105.788 74.5971 105.788H74.5969L73.2353 104.756L70.6948 105.788L70.0441 105.788L70.0442 108.779Z" fill="#2F2E41"/>
<path d="M49.2942 90.06C49.33 89.5274 49.6146 86.5818 49.6146 86.5818L50.2964 80.335L51.4981 63.776L51.5765 62.692L57.8712 61.4855L62.1734 59.4265L67.2869 61.0584L71.2686 62.5491C71.2686 62.5491 71.2754 63.1872 71.3061 63.9581C71.347 64.9672 71.4186 66.2043 71.589 66.5259C71.8737 67.0943 71.8021 70.1454 71.8021 70.1454C71.8021 70.1454 72.085 76.3531 72.4413 77.0337C72.7975 77.7144 72.8691 79.1319 72.7617 79.4161C72.6544 79.7002 73.118 87.1553 73.118 87.1553C73.118 87.1553 74.3079 100.348 73.5613 102.337C72.8148 104.326 69.9936 103.023 69.9936 103.023C69.9936 103.023 70.13 102.492 69.3118 102.242C68.4937 101.992 66.0017 83.2857 66.0017 83.2857C66.0017 83.2857 65.538 79.4501 65.1119 78.3508C64.6858 77.2515 64.2938 74.163 64.2938 74.163C64.2938 74.163 61.662 69.0512 61.6279 67.9145C61.6279 67.9145 61.2836 66.8509 60.9581 68.0217C60.6325 69.1924 59.6729 71.9968 59.6729 71.9968L58.7371 75.4409L57.636 80.5868L56.9235 84.9192C56.9235 84.9192 55.8565 90.6692 55.686 90.9176C55.5156 91.1661 55.686 96.4192 55.686 96.4192C55.686 96.4192 54.8611 100.893 53.6952 101.674C52.5293 102.455 49.4404 101.686 49.4404 101.686C49.4404 101.686 49.2584 90.5926 49.2942 90.06Z" fill="#2F2E41"/>
<path d="M51.9797 45.4184L53.379 49.0765L51.6523 50.8605L52.4126 51.5394L51.8519 52.4996L50.3893 62.5614L58.4073 65.2004L61.1072 62.2625L63.2361 65.2004L72.5138 63.233L70.148 50.4019V49.5631L69.4798 47.9435V44.5145L72.5479 34.3077L65.9787 32.707L63.4612 30.9778L62.6465 33.4098L59.1778 32.8742L59.0874 31.0474L56.4334 33.2233L52.8949 33.7766L50.219 34.3077L49.8781 35.0473L50.5597 34.8993L51.753 44.5219L51.9797 45.4184Z" fill="#2F2E41"/>
<path d="M57.3751 35.5414L59.0874 31.0578L63.4612 30.9779L64.9125 35.5414L70.1291 64.6345C70.1291 64.6345 54.1476 69.0777 54.3097 63.7368C54.4801 58.1212 55.2492 50.662 55.2492 50.662L57.3751 35.5414Z" fill="#3F3D56"/>
<path d="M61.1765 29.8037C64.022 29.8037 66.3288 27.5008 66.3288 24.66C66.3288 21.8192 64.022 19.5162 61.1765 19.5162C58.3309 19.5162 56.0242 21.8192 56.0242 24.66C56.0242 27.5008 58.3309 29.8037 61.1765 29.8037Z" fill="#A0616A"/>
<path d="M55.7204 20.9285C56.5592 20.0171 57.6084 18.3486 60.7863 17.648C64.7131 16.7823 66.5686 20.3237 65.5783 20.3818C68.474 21.2572 66.6139 27.2395 65.7837 26.7378C65.7766 26.7328 65.7698 26.7275 65.7632 26.7218C65.3167 26.3936 64.942 25.9779 64.6619 25.5002C64.3818 25.0225 64.2021 24.4928 64.134 23.9435L63.9764 22.5278C63.9539 23.6797 62.7747 23.832 61.57 23.4078C61.6412 23.1553 61.7771 22.9257 61.9644 22.7416C62.1517 22.5575 62.3838 22.4254 62.6378 22.3582C61.9009 23.0368 60.9416 23.5223 59.6017 23.677C59.7662 23.0415 60.0938 22.5736 60.6068 22.2964L60.5592 22.2497C60.0683 22.6227 59.5567 22.9812 58.9664 23.1501C58.3023 23.3401 57.5066 23.2373 57.0516 22.7184C56.929 22.5751 56.8365 22.4089 56.7794 22.2294C56.8778 23.1415 56.2649 24.1828 55.7889 24.004C55.3928 23.9272 55.162 21.5353 55.7204 20.9285Z" fill="#2F2E41"/>
<path d="M67.5292 24.3764L72.215 32.2467L75.6784 30.6136C75.6784 30.6136 69.7106 23.1723 69.5205 22.9582C69.6019 22.5965 69.5714 22.2187 69.433 21.8747C69.2947 21.5306 69.0549 21.2367 68.7456 21.0316C68.4362 20.8266 68.0718 20.7201 67.7005 20.7263C67.3293 20.7326 66.9686 20.8511 66.6663 21.0664C66.364 21.2817 66.1343 21.5836 66.0076 21.932C65.8809 22.2805 65.8631 22.6591 65.9566 23.0179C66.0502 23.3767 66.2506 23.6986 66.5314 23.9412C66.8122 24.1838 67.1601 24.3355 67.5292 24.3764Z" fill="#A0616A"/>
<path d="M69.7978 43.9344L77.07 38.7042C77.5445 38.363 77.9424 37.9267 78.2383 37.4232C78.5342 36.9197 78.7217 36.3601 78.7886 35.7802C78.8556 35.2003 78.8006 34.6128 78.6272 34.0553C78.4538 33.4978 78.1657 32.9826 77.7815 32.5425L72.5478 26.5489L70.2678 29.6333L72.0252 33.3016L68.6224 34.1974L69.7978 43.9344Z" fill="#2F2E41"/>
<path d="M57.3162 25.1161L52.6304 32.9864L49.167 31.3534C49.167 31.3534 55.1348 23.912 55.3249 23.698C55.2435 23.3363 55.274 22.9584 55.4124 22.6144C55.5507 22.2704 55.7904 21.9764 56.0998 21.7714C56.4092 21.5663 56.7736 21.4599 57.1449 21.4661C57.5161 21.4723 57.8768 21.5909 58.1791 21.8062C58.4814 22.0215 58.7111 22.3233 58.8378 22.6718C58.9645 23.0202 58.9823 23.3989 58.8887 23.7577C58.7952 24.1164 58.5948 24.4384 58.314 24.6809C58.0332 24.9235 57.6853 25.0753 57.3162 25.1161Z" fill="#A0616A"/>
<path d="M55.0475 44.6741L47.7753 39.4439C47.3008 39.1027 46.9029 38.6664 46.607 38.1629C46.3111 37.6594 46.1237 37.0999 46.0567 36.5199C45.9897 35.94 46.0447 35.3525 46.2181 34.795C46.3916 34.2375 46.6796 33.7223 47.0638 33.2823L52.2975 27.2886L54.5775 30.373L52.8202 34.0414L56.2229 34.9372L55.0475 44.6741Z" fill="#2F2E41"/>
<path d="M62.405 43.2098C62.5693 43.4037 62.6558 43.6515 62.6479 43.9053C62.6534 44.1566 62.5721 44.4021 62.4178 44.6007C62.2511 44.8059 62.0311 44.9615 61.7819 45.0504C61.1796 45.2588 60.5246 45.2588 59.9224 45.0504C59.6731 44.9615 59.4532 44.8059 59.2865 44.6007C59.1321 44.4021 59.0509 44.1566 59.0564 43.9053C59.048 43.6485 59.1344 43.3976 59.2992 43.2003C59.4796 43.0003 59.7191 42.8628 59.9831 42.8079C59.7516 42.7362 59.5454 42.6001 59.3887 42.4156C59.2444 42.2407 59.1674 42.0201 59.1715 41.7935C59.1671 41.5557 59.2449 41.3236 59.3919 41.1364C59.5497 40.9415 59.7572 40.7927 59.9926 40.7058C60.5481 40.5059 61.1561 40.5059 61.7116 40.7058C61.947 40.7928 62.1546 40.9415 62.3124 41.1364C62.4593 41.3236 62.5372 41.5557 62.5328 41.7935C62.5368 42.0245 62.4587 42.2494 62.3124 42.4283C62.1604 42.6124 61.9568 42.7469 61.7276 42.8143C61.9886 42.8739 62.225 43.012 62.405 43.2098ZM61.3506 44.1796C61.4122 44.1401 61.4624 44.0851 61.496 44.0202C61.5296 43.9552 61.5456 43.8826 61.5423 43.8096C61.544 43.7357 61.5281 43.6624 61.4959 43.5959C61.4637 43.5293 61.4161 43.4714 61.357 43.4268C61.2217 43.2958 61.0406 43.2226 60.8521 43.2226C60.6637 43.2226 60.4826 43.2958 60.3473 43.4268C60.2882 43.4713 60.2406 43.5293 60.2083 43.5958C60.1761 43.6624 60.1602 43.7357 60.162 43.8096C60.1587 43.8826 60.1746 43.9552 60.2083 44.0202C60.2419 44.0851 60.2921 44.1401 60.3537 44.1796C60.5064 44.2633 60.6779 44.3072 60.8521 44.3072C61.0264 44.3072 61.1979 44.2633 61.3506 44.1796ZM60.4464 41.5735C60.393 41.6164 60.3508 41.6716 60.3236 41.7344C60.2963 41.7972 60.2847 41.8656 60.2898 41.9339C60.2898 42.2146 60.4772 42.4018 60.8521 42.4953C61.227 42.4018 61.4144 42.2147 61.4145 41.9339C61.4196 41.8656 61.408 41.7972 61.3807 41.7344C61.3534 41.6716 61.3113 41.6164 61.2579 41.5735C61.1367 41.4964 60.9959 41.4554 60.8521 41.4554C60.7084 41.4554 60.5676 41.4964 60.4464 41.5735Z" fill="white"/>
<path d="M4.80567 28.0788C4.9174 28.2437 5.06399 28.3821 5.23512 28.4844C5.40624 28.5866 5.59773 28.6502 5.79611 28.6705C5.9945 28.6909 6.19494 28.6676 6.38332 28.6022C6.5717 28.5369 6.74344 28.4311 6.88644 28.2923L11.2181 30.465L10.923 27.9674L6.85482 26.2871C6.60538 26.0627 6.28216 25.9375 5.94642 25.9352C5.61067 25.9328 5.28573 26.0535 5.03315 26.2743C4.78057 26.4952 4.61791 26.8008 4.57599 27.1334C4.53406 27.466 4.61578 27.8023 4.80567 28.0788Z" fill="#9E616A"/>
<path d="M22.7258 38.1598L20.569 36.6748C20.569 36.6748 18.0992 36.5076 17.7277 35.7237C17.3562 34.9398 17.2936 35.2034 16.8976 35.1096C16.5017 35.0159 16.2973 33.836 15.6335 33.9752C14.1401 34.2884 7.11649 29.6551 7.87453 29.076L8.438 26.704C9.03339 26.9259 9.65414 27.0729 10.2859 27.1415C11.2412 27.2285 13.4919 28.3182 13.8253 28.6755C14.1587 29.0328 14.7492 28.8943 15.5412 29.0818C16.3332 29.2693 16.6104 30.5411 17.9239 30.2027C19.7721 29.7265 29.3472 34.2605 30.3831 34.6837C31.52 35.1482 32.314 36.5327 32.314 36.5327L32.0009 37.8505L22.7258 38.1598Z" fill="#FF7131"/>
<path d="M38.2912 105.527H40.1709L41.0654 98.2886H38.291L38.2912 105.527Z" fill="#9E616A"/>
<path d="M37.6776 104.242L40.6807 104.063V105.347L43.5359 107.316C43.6769 107.413 43.7831 107.553 43.839 107.714C43.8949 107.876 43.8975 108.052 43.8465 108.215C43.7955 108.378 43.6936 108.521 43.5555 108.622C43.4175 108.724 43.2506 108.779 43.0792 108.779H39.5039L38.8876 107.508L38.647 108.779H37.299L37.6776 104.242Z" fill="#2F2E41"/>
<path d="M14.7316 103.933L16.4781 104.627L19.9907 98.2318L17.4131 97.2076L14.7316 103.933Z" fill="#9E616A"/>
<path d="M14.6377 102.512L17.4942 103.455L17.0183 104.648L18.9417 107.531C19.0367 107.674 19.0837 107.843 19.0757 108.014C19.0677 108.184 19.0052 108.348 18.8973 108.481C18.7894 108.614 18.6417 108.709 18.4759 108.752C18.3101 108.796 18.1348 108.785 17.9756 108.722L14.6537 107.401L14.5519 105.993L13.8576 107.085L12.6052 106.587L14.6377 102.512Z" fill="#2F2E41"/>
<path d="M34.5021 83.9881L31.3676 69.3846L26.4729 85.6104L18.7224 100.997L18.6813 101.078L16.2263 99.7586C15.8798 93.5112 16.7027 87.6568 19.7124 82.5375L21.1376 68.4863C21.1813 68.0062 22.2444 56.7347 25.6107 54.7359L26.5966 52.4917L36.4019 50.074L36.4375 50.1141C37.3804 51.1721 38.0033 52.4755 38.2337 53.8728L41.1636 71.5928L41.1653 71.6026L40.3797 83.9643L41.4543 102.202H37.566C35.1606 97.6833 34.1393 91.6121 34.5021 83.9881Z" fill="#2F2E41"/>
<path d="M42.9429 22.7413C43.0924 22.8731 43.2111 23.036 43.2906 23.2186C43.3702 23.4012 43.4086 23.5989 43.4034 23.798C43.3981 23.997 43.3491 24.1924 43.26 24.3705C43.1709 24.5486 43.0437 24.7051 42.8875 24.8288L44.4886 29.3968L42.0456 28.7834L40.8996 24.5396C40.7088 24.2638 40.626 23.9277 40.6669 23.595C40.7077 23.2623 40.8694 22.9561 41.1212 22.7344C41.3731 22.5128 41.6976 22.391 42.0334 22.3923C42.3691 22.3935 42.6927 22.5177 42.9429 22.7413Z" fill="#9E616A"/>
<path d="M23.7065 57.2461C23.4424 57.2461 23.2924 57.1944 23.2343 57.0835C23.1491 56.9208 23.297 56.7083 23.4682 56.462C23.5876 56.2905 23.9365 55.9493 23.7649 55.9284C21.1638 55.6113 22.4124 39.6012 23.5397 37.4849C23.7687 37.0549 23.5264 36.3952 23.7843 35.6655C24.4889 33.6726 25.4505 33.0602 27.3664 31.8402C27.5219 31.7411 27.6838 31.6377 27.8522 31.5298C28.07 31.3901 28.0579 30.9268 28.045 30.4362C28.0308 29.8909 28.016 29.3271 28.2836 28.9746L28.301 28.9517L28.3291 28.9451C28.9762 28.7958 31.1529 28.5185 32.4419 28.9472L32.4597 28.9532L32.473 28.9664C32.7792 29.2721 32.8071 29.8642 32.8341 30.4368C32.8562 30.9069 32.8771 31.3508 33.0504 31.5436C34.3748 33.0175 35.8769 32.9887 35.8921 32.9884L35.9665 32.9863L35.9739 33.0602C36.9025 34.8246 36.1754 41.3775 36.8209 45.4479C37.4766 49.5833 43.0766 53.1035 38.2815 53.7285C38.2918 53.7444 38.2976 53.7628 38.2981 53.7817C38.2987 53.8007 38.2941 53.8194 38.2847 53.8359C37.995 54.3763 24.7017 57.2461 23.7065 57.2461Z" fill="#FF7131"/>
<path d="M45.3835 37.081L42.722 38.399C37.5935 40.3658 34.9132 39.8867 33.5666 39.139C32.1297 38.3412 31.8806 37.118 31.8709 37.0664L31.87 37.0415L32.1983 34.4452C32.24 34.1155 32.3515 33.7983 32.5253 33.5148C32.6991 33.2313 32.9312 32.9879 33.2064 32.8008C33.4816 32.6136 33.7934 32.487 34.1213 32.4293C34.4492 32.3717 34.7857 32.3842 35.1083 32.4662L41.2314 34.0219L41.1197 31.0545L41.3619 29.986L40.9153 28.6873L41.0983 26.079L43.2946 25.5423L45.5985 29.662L45.1846 30.799L45.5746 31.365L45.5738 31.3912L45.3835 37.081Z" fill="#FF7131"/>
<path d="M32.0316 39.1627V40.0559L30.0506 43.7051H28.7726L30.7472 40.1133H28.6511V39.1627L32.0316 39.1627Z" fill="white"/>
<path d="M82.6726 16.9024C84.1441 13.7788 82.9533 10.1274 80.827 9.12901C78.7007 8.13059 75.124 9.54344 73.6525 12.667C72.2904 15.5582 73.305 18.9446 75.0514 20.1783C75.022 20.1869 74.9946 20.2011 74.9706 20.22L74.551 20.5651C74.519 20.5914 74.4942 20.6254 74.4791 20.6639C74.464 20.7024 74.459 20.7442 74.4646 20.7852C74.4702 20.8262 74.4862 20.865 74.5111 20.8981C74.536 20.9312 74.5689 20.9574 74.6068 20.9742L75.6652 21.4438C75.703 21.4606 75.7446 21.4674 75.7859 21.4637C75.8271 21.4599 75.8668 21.4457 75.901 21.4224C75.9352 21.3991 75.9629 21.3674 75.9814 21.3304C75.9999 21.2934 76.0087 21.2523 76.0068 21.2109L75.9821 20.6687C75.9808 20.6499 75.9773 20.6312 75.9717 20.6132C78.0393 21.1804 81.3076 19.7999 82.6726 16.9024Z" fill="#CCCCCC"/>
<path d="M81.4672 12.4226C81.8013 13.3901 81.7504 14.4488 81.3253 15.38C80.9001 16.3112 80.133 17.0439 79.1824 17.4269C78.9659 17.5168 79.1387 17.8376 79.3539 17.7482C80.3726 17.3245 81.1933 16.5319 81.6513 15.5295C82.1092 14.527 82.1706 13.3888 81.8232 12.343C81.7497 12.1224 81.3932 12.2004 81.4672 12.4226Z" fill="white"/>
<path d="M108.491 27.3685C111.468 25.614 112.543 21.9269 111.349 19.9067C110.154 17.8865 106.402 17.044 103.424 18.7985C100.668 20.4225 99.5969 23.7915 100.345 25.7927C100.315 25.7833 100.285 25.7796 100.254 25.7817L99.7129 25.8311C99.6716 25.8348 99.632 25.8491 99.5978 25.8724C99.5636 25.8958 99.5359 25.9275 99.5174 25.9645C99.4989 26.0015 99.4902 26.0426 99.4921 26.084C99.494 26.1253 99.5065 26.1655 99.5283 26.2006L100.138 27.1835C100.16 27.2187 100.191 27.2477 100.227 27.2678C100.263 27.2879 100.304 27.2985 100.345 27.2984C100.387 27.2984 100.427 27.2878 100.464 27.2676C100.5 27.2474 100.53 27.2183 100.552 27.1831L100.837 26.7211C100.847 26.7048 100.854 26.6874 100.86 26.6693C102.249 28.3002 105.729 28.9961 108.491 27.3685Z" fill="#FF7131"/>
<path d="M110.021 22.9887C109.751 23.976 109.112 24.8224 108.236 25.3531C107.359 25.8838 106.312 26.0582 105.31 25.8405C105.081 25.7931 105.043 26.1554 105.271 26.2024C106.352 26.4248 107.477 26.231 108.421 25.6599C109.365 25.0887 110.057 24.1825 110.36 23.1229C110.423 22.8993 110.085 22.7634 110.021 22.9887Z" fill="white"/>
<path d="M89.5379 13.0219C89.1628 12.1978 88.9887 11.2967 89.0298 10.3925C89.0709 9.48828 89.326 8.60664 89.7743 7.81987C89.9021 7.59822 90.0294 7.32991 90.3096 7.28731C90.4155 7.26807 90.5248 7.28526 90.6196 7.33606C90.7144 7.38687 90.7892 7.46828 90.8317 7.567C90.8691 7.69832 90.8622 7.8383 90.8121 7.96534C90.762 8.09239 90.6714 8.19944 90.5543 8.26999C90.4372 8.34054 90.3001 8.37066 90.1641 8.35571C90.0282 8.34077 89.9009 8.28159 89.802 8.18729C89.2707 7.75994 89.3382 7.00785 89.3893 6.40244C89.5057 5.02296 89.5039 3.5747 88.916 2.29077C88.3721 1.10285 87.2618 0.109233 85.9208 0.000717049C85.6862 -0.0182627 85.6729 0.345679 85.9064 0.364568C87.2363 0.472195 88.277 1.56608 88.7191 2.76328C88.9687 3.48406 89.0929 4.24219 89.0863 5.00482C89.0905 5.39626 89.0725 5.78766 89.0422 6.17786C88.9963 6.55822 88.9844 6.94191 89.0065 7.32438C89.069 7.94861 89.4472 8.61785 90.1232 8.71759C90.754 8.81064 91.3699 8.15198 91.1994 7.52609C91.1582 7.39077 91.0841 7.26777 90.9836 7.1681C90.8831 7.06843 90.7594 6.99522 90.6236 6.95502C90.4878 6.91482 90.3441 6.90889 90.2054 6.93776C90.0668 6.96664 89.9374 7.02941 89.8291 7.12046C89.5922 7.3179 89.4383 7.657 89.3032 7.92796C88.8951 8.74319 88.6755 9.63942 88.6604 10.5506C88.6453 11.4619 88.8352 12.3648 89.216 13.1931C89.316 13.4052 89.6377 13.2335 89.5379 13.0219Z" fill="#CCCCCC"/>
<path d="M34.4818 29.9944C34.3444 29.744 34.108 29.0279 33.8428 29.0375C33.5715 29.0493 33.2998 29.0263 33.0344 28.9689C33.0056 28.9641 32.9769 28.9577 32.9497 28.9513C31.8294 28.6722 30.6807 28.5224 29.5261 28.5048C28.5947 28.492 27.5722 28.6036 26.922 29.2687C26.2718 29.9338 26.3677 31.3055 27.2639 31.5591C24.2688 32.0768 21.1899 31.3955 18.6944 29.6627C17.108 28.5494 15.8363 27.0581 14.4912 25.6642C13.146 24.2686 11.6634 22.9273 9.85017 22.2446C8.03531 21.5604 5.81626 21.6561 4.35446 22.9304C2.57155 24.4839 2.43416 27.157 2.43256 29.5191C2.43097 30.4027 2.70735 30.2161 3.48857 30.6324C4.21388 31.0184 4.97593 31.8127 5.41846 31.122C5.86099 30.4314 5.93927 29.5781 6.03034 28.7631C6.1198 27.9481 6.2524 27.09 6.77002 26.4537C7.65988 25.3595 9.41244 25.3484 10.641 26.0422C11.8695 26.736 12.6955 27.9497 13.4767 29.1236C14.2579 30.2959 15.0823 31.5128 16.3092 32.2114C17.9212 33.1285 19.9453 32.9929 21.6276 33.7744C22.6964 34.272 23.5607 35.1062 24.4474 35.8797C25.3356 36.6533 26.3085 37.3981 27.4604 37.6485C28.6107 37.9005 29.9766 37.5209 30.5422 36.489C31.0518 35.556 30.8026 34.3614 31.2563 33.398C31.6062 32.6548 32.3203 32.1619 32.9641 31.6484C33.2293 31.4362 33.298 32.1667 33.5233 31.9083C34.1735 31.7792 34.7838 30.5447 34.4818 29.9944Z" fill="#3F3D56"/>
<path d="M30.0023 28.6748C32.7903 28.6748 35.0504 26.4185 35.0504 23.6351C35.0504 20.8518 32.7903 18.5954 30.0023 18.5954C27.2143 18.5954 24.9542 20.8518 24.9542 23.6351C24.9542 26.4185 27.2143 28.6748 30.0023 28.6748Z" fill="#2F2E41"/>
<path d="M30.4087 29.0908C32.4115 29.0342 33.989 27.3674 33.9323 25.3679C33.8755 23.3685 32.206 21.7935 30.2032 21.8502C28.2004 21.9068 26.6228 23.5736 26.6796 25.5731C26.7363 27.5725 28.4059 29.1475 30.4087 29.0908Z" fill="#9E616A"/>
<path d="M30.341 19.947L28.8703 19.9886C27.9436 20.0156 27.0654 20.4085 26.4285 21.0812C25.7916 21.7539 25.448 22.6514 25.4732 23.5766L25.4741 23.6092L25.5009 23.6259C26.3003 24.1539 27.2438 24.4219 28.2018 24.3931L28.2845 24.3907L29.097 24.354C29.2337 24.0026 29.2794 23.6225 29.2299 23.2488C29.3526 23.6031 29.4484 23.966 29.5165 24.3346L33.1624 24.1689C33.3746 24.1584 33.5742 24.0656 33.7188 23.9102C33.8633 23.7548 33.9413 23.5492 33.9362 23.3372C33.9088 22.412 33.5149 21.5354 32.8409 20.8998C32.1669 20.2642 31.2678 19.9216 30.341 19.947Z" fill="#2F2E41"/>
<path d="M27.4105 19.0382C27.0786 19.4469 26.5456 19.6171 26.0667 19.8385C25.2217 20.2374 24.487 20.836 23.9262 21.5825C23.3654 22.329 22.9955 23.2008 22.8485 24.1223C22.7357 24.8727 22.7751 25.645 22.5841 26.3789C22.3943 27.1126 21.8935 27.8415 21.1492 27.9889C20.6456 28.0895 20.1327 27.9088 19.6512 27.7297C19.3865 27.632 19.1217 27.534 18.8569 27.4355C19.1105 26.7437 19.3638 26.0519 19.6166 25.3602C19.1974 26.0181 18.7054 26.6269 18.1499 27.1752C17.201 26.824 16.2512 26.4729 15.3005 26.1218C17.6132 26.0652 17.155 23.8353 17.6085 21.5721C17.8578 20.3285 20.2554 19.4234 20.6968 18.2344C20.9353 17.5895 21.3538 17.0264 21.9028 16.6115C22.4518 16.1967 23.1084 15.9476 23.7948 15.8937C24.4813 15.8398 25.1688 15.9833 25.7761 16.3073C26.3833 16.6313 26.8849 17.1222 27.2214 17.7219C27.7015 17.8973 27.7362 18.6348 27.4105 19.0382Z" fill="#2F2E41"/>
<path d="M27.6417 20.537C28.6799 20.537 29.5214 19.6969 29.5214 18.6604C29.5214 17.624 28.6799 16.7838 27.6417 16.7838C26.6036 16.7838 25.762 17.624 25.762 18.6604C25.762 19.6969 26.6036 20.537 27.6417 20.537Z" fill="#2F2E41"/>
</g>
<defs>
<clipPath id="clip0_83_3222">
<rect width="120" height="109" fill="white"/>
</clipPath>
</defs>
</svg>
